<svg width="12" height="12" viewBox="0 0 12 12" fill="none" xmlns="http://www.w3.org/2000/svg">
<path d="M11.5 7.739C11.5 5.48711 9.99262 3.93086 7.33862 3.93086H3.42752L1.62328 4.01339L1.72805 4.28456L3.16561 3.04072L4.84763 1.37835C4.93493 1.28403 4.98731 1.17203 4.98731 1.01876C4.98731 0.712216 4.78361 0.5 4.46932 0.5C4.34709 0.5 4.19578 0.564846 4.09683 0.665056L0.674603 4.06644C0.558201 4.17845 0.5 4.31403 0.5 4.46142C0.5 4.60288 0.558201 4.73844 0.674603 4.85047L4.09683 8.25185C4.19578 8.35799 4.34709 8.41694 4.46932 8.41694C4.78361 8.41694 4.98731 8.20471 4.98731 7.89816C4.98731 7.74489 4.93493 7.63291 4.84763 7.53859L3.16561 5.8821L1.72805 4.63235L1.62328 4.90354L3.42752 4.98604H7.42593C9.41059 4.98604 10.4582 6.09433 10.4582 7.68005C10.4582 9.2717 9.41059 10.4507 7.42593 10.4507H6.08731C5.76722 10.4507 5.55768 10.6865 5.55768 10.9753C5.55768 11.2642 5.76722 11.5 6.08731 11.5H7.43174C10.0333 11.5 11.5 9.99678 11.5 7.739Z" fill="black" fill-opacity="0.85"/>
</svg>
