<svg width="24" height="24" viewBox="0 0 24 24" fill="none" xmlns="http://www.w3.org/2000/svg">
<g opacity="0.9">
<path d="M12.0001 21.3342C17.106 21.3342 21.3334 17.0976 21.3334 12.0008C21.3334 6.89494 17.0969 2.66748 11.9909 2.66748C6.89421 2.66748 2.66675 6.89494 2.66675 12.0008C2.66675 17.0976 6.90336 21.3342 12.0001 21.3342ZM12.0001 19.7787C7.68114 19.7787 4.23146 16.3198 4.23146 12.0008C4.23146 7.68188 7.67199 4.22304 11.9909 4.22304C16.3099 4.22304 19.7779 7.68188 19.7779 12.0008C19.7779 16.3198 16.3191 19.7787 12.0001 19.7787Z" fill="black" fill-opacity="0.85"/>
<path d="M11.9909 13.647C12.421 13.647 12.6772 13.3999 12.6863 12.9241L12.8236 8.0927C12.8327 7.62603 12.4667 7.27832 11.9818 7.27832C11.4877 7.27832 11.14 7.61688 11.1491 8.08355L11.268 12.9241C11.2771 13.3908 11.5334 13.647 11.9909 13.647ZM11.9909 16.6208C12.5125 16.6208 12.97 16.1999 12.97 15.6692C12.97 15.1385 12.5216 14.7176 11.9909 14.7176C11.451 14.7176 11.0027 15.1476 11.0027 15.6692C11.0027 16.1907 11.4602 16.6208 11.9909 16.6208Z" fill="black" fill-opacity="0.85"/>
</g>
</svg>
